G75*
%MOIN*%
%OFA0B0*%
%FSLAX24Y24*%
%IPPOS*%
%LPD*%
%AMOC8*
5,1,8,0,0,1.08239X$1,22.5*
%
%ADD10C,0.0000*%
%ADD11C,0.0060*%
%ADD12C,0.0050*%
%ADD13C,0.0040*%
D10*
X003272Y001025D02*
X003272Y007075D01*
X010322Y007075D01*
X010322Y001025D01*
X003272Y001025D01*
D11*
X004247Y001405D02*
X004473Y001405D01*
X004247Y001632D01*
X004247Y001689D01*
X004303Y001745D01*
X004417Y001745D01*
X004473Y001689D01*
X004615Y001745D02*
X004615Y001405D01*
X004842Y001405D02*
X004842Y001745D01*
X004728Y001632D01*
X004615Y001745D01*
X004615Y002355D02*
X004615Y002695D01*
X004728Y002582D01*
X004842Y002695D01*
X004842Y002355D01*
X004473Y002412D02*
X004417Y002355D01*
X004303Y002355D01*
X004247Y002412D01*
X004247Y002468D01*
X004303Y002525D01*
X004360Y002525D01*
X004303Y002525D02*
X004247Y002582D01*
X004247Y002639D01*
X004303Y002695D01*
X004417Y002695D01*
X004473Y002639D01*
X008747Y002575D02*
X008973Y002575D01*
X008803Y002745D01*
X008803Y002405D01*
X009115Y002405D02*
X009115Y002745D01*
X009228Y002632D01*
X009342Y002745D01*
X009342Y002405D01*
X009292Y003405D02*
X009292Y003745D01*
X009178Y003632D01*
X009065Y003745D01*
X009065Y003405D01*
X008923Y003405D02*
X008697Y003405D01*
X008810Y003405D02*
X008810Y003745D01*
X008923Y003632D01*
X006105Y005855D02*
X006018Y006028D01*
X006192Y006028D02*
X006105Y005855D01*
X005897Y005855D02*
X005854Y005855D01*
X005854Y005898D01*
X005897Y005898D01*
X005897Y005855D01*
X005750Y005898D02*
X005576Y006072D01*
X005576Y005898D01*
X005620Y005855D01*
X005706Y005855D01*
X005750Y005898D01*
X005750Y006072D01*
X005706Y006115D01*
X005620Y006115D01*
X005576Y006072D01*
X005455Y006028D02*
X005368Y006115D01*
X005368Y005855D01*
X005282Y005855D02*
X005455Y005855D01*
X004692Y006007D02*
X004635Y005950D01*
X004408Y005950D01*
X004352Y006007D01*
X004352Y006120D01*
X004408Y006177D01*
X004522Y006177D01*
X004522Y006063D01*
X004635Y006177D02*
X004692Y006120D01*
X004692Y006007D01*
X004692Y006318D02*
X004352Y006318D01*
X004352Y006545D02*
X004692Y006545D01*
X004692Y006687D02*
X004352Y006687D01*
X004352Y006857D01*
X004408Y006914D01*
X004635Y006914D01*
X004692Y006857D01*
X004692Y006687D01*
X004352Y006545D02*
X004692Y006318D01*
X008852Y006391D02*
X008852Y006505D01*
X008852Y006448D02*
X009192Y006448D01*
X009192Y006391D02*
X009192Y006505D01*
X009192Y006637D02*
X008852Y006864D01*
X009192Y006864D01*
X009192Y006637D02*
X008852Y006637D01*
X008965Y006250D02*
X009192Y006250D01*
X008965Y006250D02*
X008852Y006136D01*
X008965Y006023D01*
X009192Y006023D01*
D12*
X008397Y006050D02*
X008397Y005700D01*
X008397Y005817D02*
X008222Y005817D01*
X008163Y005875D01*
X008163Y005992D01*
X008222Y006050D01*
X008397Y006050D01*
X008028Y005875D02*
X008028Y005758D01*
X007970Y005700D01*
X007853Y005700D01*
X007795Y005817D02*
X008028Y005817D01*
X008028Y005875D02*
X007970Y005934D01*
X007853Y005934D01*
X007795Y005875D01*
X007795Y005817D01*
X007660Y005875D02*
X007602Y005934D01*
X007427Y005934D01*
X007292Y006050D02*
X007292Y005700D01*
X007292Y005817D02*
X007117Y005934D01*
X006985Y005934D02*
X006985Y005758D01*
X006926Y005700D01*
X006751Y005700D01*
X006751Y005642D02*
X006810Y005583D01*
X006868Y005583D01*
X006751Y005642D02*
X006751Y005934D01*
X007117Y005700D02*
X007292Y005817D01*
X007427Y005758D02*
X007485Y005700D01*
X007660Y005700D01*
X007602Y005817D02*
X007485Y005817D01*
X007427Y005758D01*
X007602Y005817D02*
X007660Y005875D01*
X007120Y005450D02*
X007120Y005100D01*
X007295Y005100D01*
X007353Y005158D01*
X007353Y005275D01*
X007295Y005334D01*
X007120Y005334D01*
X006985Y005334D02*
X006985Y005158D01*
X006926Y005100D01*
X006751Y005100D01*
X006751Y005334D01*
X006617Y005275D02*
X006617Y005158D01*
X006558Y005100D01*
X006383Y005100D01*
X006190Y005158D02*
X006131Y005100D01*
X006190Y005158D02*
X006190Y005392D01*
X006248Y005334D02*
X006131Y005334D01*
X006003Y005275D02*
X005944Y005217D01*
X005828Y005217D01*
X005769Y005158D01*
X005828Y005100D01*
X006003Y005100D01*
X006003Y005275D02*
X005944Y005334D01*
X005769Y005334D01*
X006383Y005334D02*
X006558Y005334D01*
X006617Y005275D01*
X007108Y004800D02*
X007108Y004450D01*
X006973Y004508D02*
X006915Y004450D01*
X006798Y004450D01*
X006740Y004508D01*
X006740Y004625D01*
X006798Y004684D01*
X006915Y004684D01*
X006973Y004625D01*
X006973Y004508D01*
X007225Y004684D02*
X007108Y004800D01*
X007225Y004684D02*
X007342Y004800D01*
X007342Y004450D01*
X007342Y004084D02*
X007167Y004084D01*
X007108Y004025D01*
X007108Y003850D01*
X006973Y003850D02*
X006798Y003850D01*
X006740Y003908D01*
X006798Y003967D01*
X006915Y003967D01*
X006973Y004025D01*
X006915Y004084D01*
X006740Y004084D01*
X006605Y004084D02*
X006605Y003908D01*
X006547Y003850D01*
X006372Y003850D01*
X006372Y003792D02*
X006430Y003733D01*
X006488Y003733D01*
X006372Y003792D02*
X006372Y004084D01*
X006301Y004450D02*
X006184Y004450D01*
X006126Y004508D01*
X006126Y004625D01*
X006184Y004684D01*
X006301Y004684D01*
X006360Y004625D01*
X006360Y004508D01*
X006301Y004450D01*
X006488Y004450D02*
X006547Y004508D01*
X006547Y004742D01*
X006605Y004684D02*
X006488Y004684D01*
X005991Y004684D02*
X005991Y004450D01*
X005991Y004567D02*
X005875Y004684D01*
X005816Y004684D01*
X005810Y004200D02*
X005693Y004200D01*
X005635Y004142D01*
X005635Y004084D01*
X005693Y004025D01*
X005635Y003967D01*
X005635Y003908D01*
X005693Y003850D01*
X005810Y003850D01*
X005869Y003908D01*
X005752Y004025D02*
X005693Y004025D01*
X005810Y004200D02*
X005869Y004142D01*
X005500Y003908D02*
X005442Y003908D01*
X005442Y003850D01*
X005500Y003850D01*
X005500Y003908D01*
X005316Y003850D02*
X005083Y003850D01*
X005199Y003850D02*
X005199Y004200D01*
X005316Y004084D01*
X006372Y003425D02*
X006372Y003250D01*
X006605Y003250D02*
X006605Y003484D01*
X006430Y003484D01*
X006372Y003425D01*
X006740Y003425D02*
X006740Y003308D01*
X006798Y003250D01*
X006915Y003250D01*
X006973Y003308D01*
X006973Y003425D01*
X006915Y003484D01*
X006798Y003484D01*
X006740Y003425D01*
X007108Y003425D02*
X007342Y003425D01*
X007477Y003484D02*
X007652Y003484D01*
X007710Y003425D01*
X007710Y003308D01*
X007652Y003250D01*
X007477Y003250D01*
X007477Y003600D01*
X007535Y003850D02*
X007652Y003850D01*
X007710Y003908D01*
X007710Y004025D01*
X007652Y004084D01*
X007535Y004084D01*
X007477Y004025D01*
X007477Y003967D01*
X007710Y003967D01*
X007845Y003967D02*
X007845Y004025D01*
X007903Y004084D01*
X008020Y004084D01*
X008078Y004025D01*
X008078Y003908D01*
X008020Y003850D01*
X007903Y003850D01*
X007845Y003967D02*
X008078Y003967D01*
X008330Y003850D02*
X008330Y004200D01*
X008447Y004200D02*
X008213Y004200D01*
X008272Y004450D02*
X008213Y004508D01*
X008213Y004742D01*
X008272Y004800D01*
X008447Y004800D01*
X008447Y004450D01*
X008272Y004450D01*
X008078Y004508D02*
X008020Y004450D01*
X007903Y004450D01*
X007845Y004508D01*
X008078Y004508D02*
X008078Y004742D01*
X008020Y004800D01*
X007903Y004800D01*
X007845Y004742D01*
X007663Y005100D02*
X007546Y005100D01*
X007488Y005158D01*
X007488Y005275D01*
X007546Y005334D01*
X007663Y005334D01*
X007721Y005275D01*
X007721Y005158D01*
X007663Y005100D01*
X007853Y005334D02*
X007912Y005334D01*
X008028Y005217D01*
X008028Y005100D02*
X008028Y005334D01*
X008163Y005392D02*
X008163Y005275D01*
X008222Y005217D01*
X008397Y005217D01*
X008397Y005100D02*
X008397Y005450D01*
X008222Y005450D01*
X008163Y005392D01*
X007342Y004084D02*
X007342Y003850D01*
X007845Y003600D02*
X007845Y003250D01*
X008020Y003250D01*
X008078Y003308D01*
X008078Y003425D01*
X008020Y003484D01*
X007845Y003484D01*
X008213Y003425D02*
X008213Y003250D01*
X008388Y003250D01*
X008447Y003308D01*
X008388Y003367D01*
X008213Y003367D01*
X008213Y003425D02*
X008272Y003484D01*
X008388Y003484D01*
X008572Y003175D02*
X007472Y002375D01*
X005922Y002375D01*
X004972Y002375D01*
X004972Y001825D02*
X005922Y002375D01*
X006227Y002300D02*
X006227Y001950D01*
X006460Y001950D02*
X006460Y002300D01*
X006343Y002184D01*
X006227Y002300D01*
X006595Y002300D02*
X006595Y001950D01*
X006712Y002067D01*
X006828Y001950D01*
X006828Y002300D01*
X006963Y002242D02*
X006963Y002125D01*
X007022Y002067D01*
X007197Y002067D01*
X007197Y001950D02*
X007197Y002300D01*
X007022Y002300D01*
X006963Y002242D01*
X007472Y002375D02*
X008572Y002375D01*
D13*
X006748Y001429D02*
X006748Y001122D01*
X006595Y001275D02*
X006902Y001275D01*
X007595Y001275D02*
X007902Y001275D01*
X005902Y001275D02*
X005595Y001275D01*
X006748Y006722D02*
X006748Y007029D01*
X006902Y006875D02*
X006595Y006875D01*
X005902Y006875D02*
X005595Y006875D01*
X007595Y006875D02*
X007902Y006875D01*
M02*
