G75*
%MOIN*%
%OFA0B0*%
%FSLAX24Y24*%
%IPPOS*%
%LPD*%
%AMOC8*
5,1,8,0,0,1.08239X$1,22.5*
%
%ADD10R,0.0236X0.0236*%
%ADD11R,0.0315X0.0354*%
%ADD12R,0.0472X0.0315*%
%ADD13C,0.0740*%
%ADD14C,0.0160*%
%ADD15C,0.0340*%
%ADD16C,0.0270*%
%ADD17C,0.0300*%
D10*
X005339Y002150D03*
X006205Y002150D03*
X007339Y002150D03*
X008205Y002150D03*
X008205Y005925D03*
X007339Y005925D03*
X006205Y005925D03*
X005339Y005925D03*
D11*
X005772Y005458D03*
X006146Y004631D03*
X005398Y004631D03*
X007398Y004631D03*
X008146Y004631D03*
X007772Y005458D03*
X008146Y003469D03*
X007398Y003469D03*
X006146Y003469D03*
X005398Y003469D03*
X005772Y002642D03*
X007772Y002642D03*
D12*
X006772Y002879D03*
X006772Y002171D03*
X004547Y001871D03*
X004547Y002579D03*
X004547Y003021D03*
X004547Y003729D03*
X004547Y004346D03*
X004547Y005054D03*
X004547Y005521D03*
X004547Y006229D03*
X006772Y005879D03*
X006772Y005171D03*
X009072Y005079D03*
X009072Y005521D03*
X009072Y006229D03*
X009072Y004371D03*
X009072Y003729D03*
X009072Y003021D03*
X009072Y002579D03*
X009072Y001871D03*
D13*
X003797Y001550D03*
X005247Y001550D03*
X006247Y001550D03*
X007247Y001550D03*
X008247Y001550D03*
X009797Y001550D03*
X009797Y002550D03*
X009797Y003550D03*
X009797Y004550D03*
X009797Y005550D03*
X009797Y006550D03*
X008247Y006550D03*
X007247Y006550D03*
X006247Y006550D03*
X005247Y006550D03*
X003797Y006550D03*
X003797Y005550D03*
X003797Y004550D03*
X003797Y003550D03*
X003797Y002550D03*
D14*
X004301Y003000D01*
X004547Y003021D01*
X004983Y003086D02*
X006298Y003086D01*
X006294Y003092D02*
X006313Y003063D01*
X006129Y002878D01*
X006129Y002902D01*
X006012Y003019D01*
X005531Y003019D01*
X005414Y002902D01*
X005414Y002824D01*
X005291Y002875D01*
X005152Y002875D01*
X005032Y002825D01*
X004983Y002830D01*
X004983Y003140D01*
X005038Y003140D01*
X005108Y003169D01*
X005130Y003147D01*
X005171Y003124D01*
X005217Y003112D01*
X005398Y003112D01*
X005579Y003112D01*
X005625Y003124D01*
X005666Y003147D01*
X005699Y003181D01*
X005723Y003222D01*
X005735Y003268D01*
X005735Y003469D01*
X005735Y003590D01*
X005788Y003590D01*
X005788Y003209D01*
X005905Y003092D01*
X006294Y003092D01*
X006178Y002927D02*
X006104Y002927D01*
X006172Y002525D02*
X006674Y003027D01*
X006772Y002879D01*
X006674Y003027D02*
X006472Y003329D01*
X006472Y003955D01*
X007398Y004631D01*
X007040Y004717D02*
X007040Y004835D01*
X007032Y004833D01*
X006772Y004833D01*
X006772Y005171D01*
X007188Y005171D01*
X007188Y005175D01*
X007291Y005175D01*
X007414Y005226D01*
X007414Y005198D01*
X007531Y005081D01*
X008012Y005081D01*
X008129Y005198D01*
X008129Y005413D01*
X008298Y005607D01*
X008406Y005607D01*
X008523Y005724D01*
X008523Y006047D01*
X008570Y006067D01*
X008655Y006153D01*
X008655Y006048D01*
X008668Y006002D01*
X008691Y005961D01*
X008725Y005928D01*
X008766Y005904D01*
X008812Y005892D01*
X008960Y005892D01*
X008947Y005878D01*
X008753Y005878D01*
X008635Y005761D01*
X008635Y004839D01*
X008753Y004722D01*
X009251Y004722D01*
X009245Y004708D01*
X009072Y004708D01*
X009072Y004371D01*
X009072Y004371D01*
X009072Y004708D01*
X008812Y004708D01*
X008766Y004696D01*
X008725Y004672D01*
X008691Y004639D01*
X008668Y004598D01*
X008655Y004552D01*
X008655Y004371D01*
X009072Y004371D01*
X008256Y004671D01*
X008146Y004631D01*
X008146Y004631D01*
X008483Y004631D01*
X008483Y004430D01*
X008471Y004385D01*
X008447Y004344D01*
X008414Y004310D01*
X008373Y004286D01*
X008327Y004274D01*
X008146Y004274D01*
X008146Y004631D01*
X008146Y004631D01*
X008146Y004274D01*
X007965Y004274D01*
X007919Y004286D01*
X007878Y004310D01*
X007844Y004344D01*
X007821Y004385D01*
X007808Y004430D01*
X007808Y004631D01*
X008146Y004631D01*
X008483Y004631D01*
X008483Y004832D01*
X008471Y004878D01*
X008447Y004919D01*
X008414Y004953D01*
X008373Y004976D01*
X008327Y004988D01*
X008146Y004988D01*
X008146Y004631D01*
X008222Y004707D01*
X008222Y004275D01*
X007722Y004275D01*
X007398Y004001D01*
X007398Y003469D01*
X007735Y003469D01*
X007735Y003471D01*
X007788Y003421D01*
X007788Y003209D01*
X007905Y003092D01*
X008183Y003092D01*
X008245Y002989D01*
X008450Y002591D01*
X008451Y002585D01*
X008476Y002541D01*
X008498Y002497D01*
X008503Y002493D01*
X008506Y002488D01*
X008546Y002457D01*
X008584Y002425D01*
X008589Y002423D01*
X008594Y002420D01*
X008635Y002408D01*
X008635Y002339D01*
X008749Y002225D01*
X008635Y002111D01*
X008635Y001967D01*
X008570Y002033D01*
X008523Y002053D01*
X008523Y002351D01*
X008406Y002468D01*
X008129Y002468D01*
X008129Y002902D01*
X008012Y003019D01*
X007531Y003019D01*
X007414Y002902D01*
X007414Y002468D01*
X007138Y002468D01*
X007130Y002461D01*
X007118Y002472D01*
X007077Y002496D01*
X007032Y002508D01*
X006772Y002508D01*
X006772Y002171D01*
X006772Y002171D01*
X006772Y002508D01*
X006551Y002508D01*
X006565Y002522D01*
X007091Y002522D01*
X007208Y002639D01*
X007208Y003114D01*
X007217Y003112D01*
X007398Y003112D01*
X007579Y003112D01*
X007625Y003124D01*
X007666Y003147D01*
X007699Y003181D01*
X007723Y003222D01*
X007735Y003268D01*
X007735Y003469D01*
X007398Y003469D01*
X007398Y003469D01*
X007398Y003469D01*
X007398Y003826D01*
X007472Y003826D01*
X007472Y003945D01*
X007525Y004073D01*
X007623Y004172D01*
X007752Y004225D01*
X007891Y004225D01*
X008020Y004172D01*
X008118Y004073D01*
X008172Y003945D01*
X008172Y003846D01*
X008347Y003846D01*
X008363Y003862D01*
X008365Y003863D01*
X008373Y003872D01*
X008409Y003887D01*
X008413Y003889D01*
X008417Y003890D01*
X008502Y003925D01*
X008635Y003925D01*
X008635Y003970D01*
X008731Y004065D01*
X008725Y004069D01*
X008691Y004103D01*
X008668Y004144D01*
X008655Y004189D01*
X008655Y004371D01*
X009072Y004371D01*
X009072Y004371D01*
X009072Y004512D02*
X009072Y004512D01*
X009072Y004671D02*
X009072Y004671D01*
X008723Y004671D02*
X008483Y004671D01*
X008483Y004829D02*
X008645Y004829D01*
X008635Y004988D02*
X008330Y004988D01*
X008322Y005075D02*
X008222Y005075D01*
X008222Y004757D01*
X008146Y004631D01*
X008146Y004631D01*
X008146Y004631D01*
X007808Y004631D01*
X007808Y004832D01*
X007821Y004878D01*
X007844Y004919D01*
X007878Y004953D01*
X007919Y004976D01*
X007965Y004988D01*
X008146Y004988D01*
X008146Y004631D01*
X008146Y004671D02*
X008146Y004671D01*
X008146Y004829D02*
X008146Y004829D01*
X008146Y004988D02*
X008146Y004988D01*
X008222Y005075D02*
X008017Y005071D01*
X006872Y005071D01*
X006772Y005171D01*
X006772Y005171D01*
X007188Y005171D01*
X007188Y005008D01*
X007638Y005008D01*
X007755Y004891D01*
X007755Y004371D01*
X007638Y004254D01*
X007356Y004254D01*
X006752Y003813D01*
X006752Y003414D01*
X006870Y003237D01*
X007069Y003237D01*
X007060Y003268D01*
X007060Y003469D01*
X007398Y003469D01*
X007398Y003826D01*
X007217Y003826D01*
X007171Y003814D01*
X007130Y003790D01*
X007096Y003756D01*
X007072Y003715D01*
X007060Y003670D01*
X007060Y003469D01*
X007398Y003469D01*
X007272Y003093D01*
X007208Y003086D02*
X008187Y003086D01*
X008104Y002927D02*
X008277Y002927D01*
X008358Y002769D02*
X008129Y002769D01*
X008129Y002610D02*
X008440Y002610D01*
X008422Y002452D02*
X008552Y002452D01*
X008523Y002293D02*
X008681Y002293D01*
X008659Y002135D02*
X008523Y002135D01*
X008627Y001976D02*
X008635Y001976D01*
X008205Y002150D02*
X008022Y002125D01*
X007772Y002375D01*
X007772Y002642D01*
X007414Y002610D02*
X007179Y002610D01*
X007208Y002769D02*
X007414Y002769D01*
X007439Y002927D02*
X007208Y002927D01*
X007398Y003112D02*
X007398Y003469D01*
X007398Y003112D01*
X007398Y003244D02*
X007398Y003244D01*
X007398Y003403D02*
X007398Y003403D01*
X007398Y003469D02*
X007398Y003469D01*
X007398Y003469D01*
X007398Y003561D02*
X007398Y003561D01*
X007398Y003720D02*
X007398Y003720D01*
X007472Y003878D02*
X006841Y003878D01*
X006752Y003720D02*
X007075Y003720D01*
X007060Y003561D02*
X006752Y003561D01*
X006760Y003403D02*
X007060Y003403D01*
X007067Y003244D02*
X006866Y003244D01*
X006146Y003469D02*
X006146Y003895D01*
X005802Y003895D01*
X005772Y003925D01*
X005455Y004037D02*
X004916Y004037D01*
X004915Y004037D02*
X004983Y004105D01*
X004983Y004586D01*
X004866Y004703D01*
X004350Y004703D01*
X004345Y004717D01*
X004547Y004717D01*
X004807Y004717D01*
X004834Y004724D01*
X004952Y004675D01*
X004962Y004675D01*
X005040Y004590D01*
X005040Y004371D01*
X005157Y004254D01*
X005638Y004254D01*
X005755Y004371D01*
X005755Y004891D01*
X005638Y005008D01*
X005416Y005008D01*
X005372Y005057D01*
X005372Y005095D01*
X005318Y005223D01*
X005220Y005322D01*
X005218Y005323D01*
X005189Y005408D01*
X005176Y005455D01*
X005172Y005460D01*
X005170Y005466D01*
X005137Y005504D01*
X005107Y005542D01*
X005101Y005546D01*
X005097Y005551D01*
X005053Y005573D01*
X004983Y005611D01*
X004983Y005761D01*
X004866Y005878D01*
X004275Y005878D01*
X004252Y005901D01*
X004287Y005892D01*
X004547Y005892D01*
X004807Y005892D01*
X004852Y005904D01*
X004893Y005928D01*
X004927Y005961D01*
X004951Y006002D01*
X004963Y006048D01*
X004963Y006051D01*
X004967Y006049D01*
X004967Y005961D01*
X005009Y005858D01*
X005021Y005847D01*
X005021Y005724D01*
X005138Y005607D01*
X005227Y005607D01*
X005414Y005420D01*
X005414Y005198D01*
X005531Y005081D01*
X006012Y005081D01*
X006129Y005198D01*
X006129Y005607D01*
X006368Y005607D01*
X006453Y005522D01*
X006729Y005522D01*
X006743Y005508D01*
X006512Y005508D01*
X006466Y005496D01*
X006425Y005472D01*
X006391Y005439D01*
X006368Y005398D01*
X006355Y005352D01*
X006355Y005171D01*
X006772Y005171D01*
X006367Y005171D01*
X006172Y005075D01*
X005472Y005075D01*
X005217Y005529D01*
X004547Y006229D01*
X004547Y005892D01*
X004547Y006229D01*
X004547Y006229D01*
X004222Y006225D01*
X003822Y006525D01*
X003797Y006550D01*
X003817Y006530D02*
X003817Y006570D01*
X004347Y006570D01*
X004347Y006593D01*
X004333Y006679D01*
X004306Y006761D01*
X004267Y006838D01*
X004262Y006845D01*
X004752Y006845D01*
X004677Y006663D01*
X004677Y006567D01*
X004547Y006567D01*
X004547Y006229D01*
X004547Y006229D01*
X004547Y006567D01*
X004287Y006567D01*
X004241Y006555D01*
X004200Y006531D01*
X004199Y006530D01*
X003817Y006530D01*
X003822Y006525D02*
X003872Y006475D01*
X004347Y006573D02*
X004677Y006573D01*
X004705Y006731D02*
X004316Y006731D01*
X004547Y006414D02*
X004547Y006414D01*
X004547Y006256D02*
X004547Y006256D01*
X004547Y006097D02*
X004547Y006097D01*
X004547Y005939D02*
X004547Y005939D01*
X004904Y005939D02*
X004976Y005939D01*
X004964Y005780D02*
X005021Y005780D01*
X004983Y005622D02*
X005123Y005622D01*
X005171Y005463D02*
X005371Y005463D01*
X005414Y005305D02*
X005237Y005305D01*
X005350Y005146D02*
X005466Y005146D01*
X005659Y004988D02*
X005961Y004988D01*
X005965Y004988D02*
X005919Y004976D01*
X005878Y004953D01*
X005844Y004919D01*
X005821Y004878D01*
X005808Y004832D01*
X005808Y004631D01*
X005808Y004430D01*
X005821Y004385D01*
X005844Y004344D01*
X005878Y004310D01*
X005919Y004286D01*
X005965Y004274D01*
X006146Y004274D01*
X006327Y004274D01*
X006373Y004286D01*
X006414Y004310D01*
X006447Y004344D01*
X006471Y004385D01*
X006483Y004430D01*
X006483Y004631D01*
X006146Y004631D01*
X006146Y004631D01*
X006146Y004274D01*
X006146Y004631D01*
X006146Y004631D01*
X006483Y004631D01*
X006483Y004832D01*
X006481Y004842D01*
X006512Y004833D01*
X006772Y004833D01*
X006772Y005171D01*
X006772Y005171D01*
X006772Y005171D01*
X006355Y005171D01*
X006355Y004989D01*
X006358Y004980D01*
X006327Y004988D01*
X006146Y004988D01*
X006146Y004631D01*
X006172Y004807D01*
X006172Y005075D01*
X006146Y004988D02*
X005965Y004988D01*
X006146Y004988D02*
X006146Y004988D01*
X006146Y004631D01*
X005808Y004631D01*
X006146Y004631D01*
X006146Y004631D01*
X006146Y004631D01*
X006146Y004671D02*
X006146Y004671D01*
X006146Y004829D02*
X006146Y004829D01*
X006330Y004988D02*
X006356Y004988D01*
X006355Y005146D02*
X006077Y005146D01*
X006129Y005305D02*
X006355Y005305D01*
X006416Y005463D02*
X006129Y005463D01*
X005772Y005458D02*
X005339Y005891D01*
X005339Y005925D01*
X005247Y006017D01*
X005247Y006550D01*
X006205Y005925D02*
X006247Y005967D01*
X006247Y006550D01*
X007247Y006550D01*
X007339Y006538D01*
X007339Y005925D01*
X007122Y005525D02*
X006922Y005725D01*
X006922Y005729D01*
X006772Y005879D01*
X007122Y005525D02*
X007222Y005525D01*
X007772Y005458D02*
X007822Y005525D01*
X007855Y005525D01*
X008205Y005925D01*
X008205Y006478D01*
X008247Y006550D01*
X008817Y006567D02*
X008817Y006663D01*
X008741Y006845D01*
X009302Y006845D01*
X009227Y006663D01*
X009227Y006567D01*
X009072Y006567D01*
X009072Y006229D01*
X009017Y006225D01*
X008772Y006225D01*
X008622Y006075D01*
X008622Y005375D01*
X008322Y005075D01*
X008077Y005146D02*
X008635Y005146D01*
X008635Y005305D02*
X008129Y005305D01*
X008173Y005463D02*
X008635Y005463D01*
X008635Y005622D02*
X008420Y005622D01*
X008523Y005780D02*
X008655Y005780D01*
X008714Y005939D02*
X008523Y005939D01*
X008600Y006097D02*
X008655Y006097D01*
X009072Y006229D02*
X009072Y006567D01*
X008817Y006567D01*
X008817Y006573D02*
X009227Y006573D01*
X009255Y006731D02*
X008789Y006731D01*
X009072Y006414D02*
X009072Y006414D01*
X009072Y006256D02*
X009072Y006256D01*
X009072Y006229D02*
X009072Y006229D01*
X009570Y006274D02*
X009570Y006106D01*
X009097Y005632D01*
X009072Y005521D01*
X009072Y005079D01*
X008655Y004512D02*
X008483Y004512D01*
X008453Y004354D02*
X008655Y004354D01*
X008655Y004195D02*
X007964Y004195D01*
X007838Y004354D02*
X007737Y004354D01*
X007755Y004512D02*
X007808Y004512D01*
X007808Y004671D02*
X007755Y004671D01*
X007755Y004829D02*
X007808Y004829D01*
X007659Y004988D02*
X007961Y004988D01*
X007466Y005146D02*
X007188Y005146D01*
X006772Y005146D02*
X006772Y005146D01*
X006772Y004988D02*
X006772Y004988D01*
X007040Y004829D02*
X006483Y004829D01*
X006483Y004671D02*
X006977Y004671D01*
X007040Y004717D02*
X006334Y004201D01*
X006313Y004193D01*
X006289Y004169D01*
X006263Y004149D01*
X006201Y004175D01*
X005996Y004175D01*
X005961Y004209D01*
X005838Y004260D01*
X005705Y004260D01*
X005582Y004209D01*
X005488Y004115D01*
X005437Y003992D01*
X005437Y003858D01*
X005450Y003826D01*
X005398Y003826D01*
X005398Y003469D01*
X005735Y003469D01*
X005398Y003469D01*
X005398Y003469D01*
X005398Y003469D01*
X005398Y003826D01*
X005217Y003826D01*
X005171Y003814D01*
X005130Y003790D01*
X005117Y003777D01*
X005099Y003785D01*
X005050Y003857D01*
X005041Y003880D01*
X005019Y003903D01*
X005001Y003929D01*
X004983Y003941D01*
X004983Y003970D01*
X004915Y004037D01*
X004983Y004195D02*
X005568Y004195D01*
X005737Y004354D02*
X005838Y004354D01*
X005808Y004512D02*
X005755Y004512D01*
X005755Y004671D02*
X005808Y004671D01*
X005808Y004829D02*
X005755Y004829D01*
X005398Y004631D02*
X005341Y004675D01*
X005022Y005025D01*
X004922Y005325D01*
X004742Y005425D01*
X004547Y005521D01*
X004547Y005054D02*
X004130Y005054D01*
X004130Y005022D01*
X004120Y005033D01*
X004079Y005050D01*
X004120Y005067D01*
X004130Y005078D01*
X004130Y005054D01*
X004547Y005054D01*
X004547Y004717D01*
X004547Y005054D01*
X004547Y005054D01*
X005398Y003955D01*
X005398Y003469D01*
X005398Y003112D01*
X005398Y003469D01*
X005398Y003469D01*
X005398Y003403D02*
X005398Y003403D01*
X005398Y003561D02*
X005398Y003561D01*
X005398Y003720D02*
X005398Y003720D01*
X005437Y003878D02*
X005042Y003878D01*
X004801Y003725D02*
X004547Y003729D01*
X004547Y004346D01*
X004983Y004354D02*
X005058Y004354D01*
X005040Y004512D02*
X004983Y004512D01*
X004966Y004671D02*
X004898Y004671D01*
X004547Y004829D02*
X004547Y004829D01*
X004547Y004988D02*
X004547Y004988D01*
X004547Y005054D02*
X004547Y005054D01*
X005722Y005525D02*
X005772Y005458D01*
X005755Y005525D02*
X005722Y005525D01*
X006146Y004512D02*
X006146Y004512D01*
X006146Y004354D02*
X006146Y004354D01*
X005975Y004195D02*
X006319Y004195D01*
X006453Y004354D02*
X006542Y004354D01*
X006483Y004512D02*
X006759Y004512D01*
X007275Y004195D02*
X007680Y004195D01*
X007510Y004037D02*
X007058Y004037D01*
X007796Y003799D02*
X007822Y003875D01*
X007796Y003799D02*
X008146Y003469D01*
X008339Y003375D01*
X008489Y003125D01*
X008722Y002675D01*
X009072Y002579D01*
X009522Y002275D02*
X009797Y002550D01*
X009522Y002275D02*
X009522Y002125D01*
X009317Y001871D01*
X009072Y001871D01*
X008247Y001550D02*
X008205Y001603D01*
X008205Y002150D01*
X007339Y002150D02*
X007339Y001563D01*
X007247Y001550D01*
X007347Y001550D01*
X007247Y001550D02*
X006247Y001550D01*
X006205Y001642D01*
X006205Y002150D01*
X006772Y002293D02*
X006772Y002293D01*
X006772Y002452D02*
X006772Y002452D01*
X005772Y002642D02*
X005489Y002342D01*
X005422Y002275D01*
X005272Y002142D01*
X005339Y002150D01*
X005339Y001592D01*
X005247Y001550D01*
X004547Y001871D02*
X004201Y001850D01*
X003797Y001550D01*
X004547Y002579D02*
X004717Y002579D01*
X004722Y002575D01*
X005222Y002525D01*
X005439Y002927D02*
X004983Y002927D01*
X005398Y003244D02*
X005398Y003244D01*
X005729Y003244D02*
X005788Y003244D01*
X005788Y003403D02*
X005735Y003403D01*
X005735Y003561D02*
X005788Y003561D01*
X004972Y003475D02*
X004801Y003725D01*
X007735Y003403D02*
X007788Y003403D01*
X007788Y003244D02*
X007729Y003244D01*
X008522Y003625D02*
X008622Y003475D01*
X008876Y003021D01*
X009072Y003021D01*
X009617Y003729D02*
X009797Y003550D01*
X009617Y003729D02*
X009072Y003729D01*
X008702Y004037D02*
X008134Y004037D01*
X008172Y003878D02*
X008389Y003878D01*
X008522Y003625D02*
X008572Y003575D01*
X008146Y004354D02*
X008146Y004354D01*
X008146Y004512D02*
X008146Y004512D01*
X009570Y006274D02*
X009797Y006550D01*
D15*
X008572Y005075D03*
X007772Y005025D03*
X006272Y005525D03*
X005772Y005025D03*
X005172Y005525D03*
X005022Y004025D03*
X005072Y003075D03*
X005772Y003075D03*
X006922Y003325D03*
X007772Y003075D03*
X007322Y002525D03*
X008322Y002525D03*
X008522Y004075D03*
D16*
X005772Y003925D03*
X004972Y003475D03*
D17*
X005222Y002525D03*
X006172Y002525D03*
X007822Y003875D03*
X008572Y003575D03*
X007222Y005525D03*
X005022Y005025D03*
M02*
