%
M48
M72
T01C0.0130
T02C0.0160
T03C0.0200
T04C0.0400
%
T01
X4972Y3475
X5772Y3925
T02
X5022Y5025
X7222Y5525
X7822Y3875
X8572Y3575
X6172Y2525
X5222Y2525
T03
X5072Y3075
X5772Y3075
X6922Y3325
X7772Y3075
X7322Y2525
X8322Y2525
X8522Y4075
X8572Y5075
X7772Y5025
X6272Y5525
X5772Y5025
X5172Y5525
X5022Y4025
T04
X3797Y1550
X5247Y1550
X6247Y1550
X7247Y1550
X8247Y1550
X9797Y1550
X9797Y2550
X9797Y3550
X9797Y4550
X9797Y5550
X9797Y6550
X8247Y6550
X7247Y6550
X6247Y6550
X5247Y6550
X3797Y6550
X3797Y5550
X3797Y4550
X3797Y3550
X3797Y2550
M30
