G75*
%MOIN*%
%OFA0B0*%
%FSLAX24Y24*%
%IPPOS*%
%LPD*%
%AMOC8*
5,1,8,0,0,1.08239X$1,22.5*
%
%ADD10R,0.0296X0.0296*%
%ADD11R,0.0375X0.0414*%
%ADD12R,0.0532X0.0375*%
%ADD13C,0.0800*%
D10*
X005339Y002150D03*
X006205Y002150D03*
X007339Y002150D03*
X008205Y002150D03*
X008205Y005925D03*
X007339Y005925D03*
X006205Y005925D03*
X005339Y005925D03*
D11*
X005772Y005458D03*
X006146Y004631D03*
X005398Y004631D03*
X007398Y004631D03*
X008146Y004631D03*
X007772Y005458D03*
X008146Y003469D03*
X007398Y003469D03*
X006146Y003469D03*
X005398Y003469D03*
X005772Y002642D03*
X007772Y002642D03*
D12*
X006772Y002879D03*
X006772Y002171D03*
X004547Y001871D03*
X004547Y002579D03*
X004547Y003021D03*
X004547Y003729D03*
X004547Y004346D03*
X004547Y005054D03*
X004547Y005521D03*
X004547Y006229D03*
X006772Y005879D03*
X006772Y005171D03*
X009072Y005079D03*
X009072Y005521D03*
X009072Y006229D03*
X009072Y004371D03*
X009072Y003729D03*
X009072Y003021D03*
X009072Y002579D03*
X009072Y001871D03*
D13*
X003797Y001550D03*
X005247Y001550D03*
X006247Y001550D03*
X007247Y001550D03*
X008247Y001550D03*
X009797Y001550D03*
X009797Y002550D03*
X009797Y003550D03*
X009797Y004550D03*
X009797Y005550D03*
X009797Y006550D03*
X008247Y006550D03*
X007247Y006550D03*
X006247Y006550D03*
X005247Y006550D03*
X003797Y006550D03*
X003797Y005550D03*
X003797Y004550D03*
X003797Y003550D03*
X003797Y002550D03*
M02*
